<?xml version="1.0" encoding="UTF-8" standalone="no"?>
<!-- Created with Inkscape (http://www.inkscape.org/) -->

<svg
   xmlns:dc="http://purl.org/dc/elements/1.1/"
   xmlns:cc="http://creativecommons.org/ns#"
   xmlns:rdf="http://www.w3.org/1999/02/22-rdf-syntax-ns#"
   xmlns:svg="http://www.w3.org/2000/svg"
   xmlns="http://www.w3.org/2000/svg"
   xmlns:sodipodi="http://sodipodi.sourceforge.net/DTD/sodipodi-0.dtd"
   xmlns:inkscape="http://www.inkscape.org/namespaces/inkscape"
   version="1.1"
   id="svg89104"
   xml:space="preserve"
   width="800"
   height="800"
   viewBox="0 0 800 800"
   sodipodi:docname="mic-in-hand-publicdomainvectors.org.svg"
   inkscape:version="0.92.4 (5da689c313, 2019-01-14)"><metadata
     id="metadata89110"><rdf:RDF><cc:Work
         rdf:about=""><dc:format>image/svg+xml</dc:format><dc:type
           rdf:resource="http://purl.org/dc/dcmitype/StillImage" /><dc:title></dc:title></cc:Work></rdf:RDF></metadata><defs
     id="defs89108"><clipPath
       clipPathUnits="userSpaceOnUse"
       id="clipPath89120"><path
         d="M 0,600 H 600 V 0 H 0 Z"
         id="path89118"
         inkscape:connector-curvature="0" /></clipPath></defs><sodipodi:namedview
     pagecolor="#ffffff"
     bordercolor="#666666"
     borderopacity="1"
     objecttolerance="10"
     gridtolerance="10"
     guidetolerance="10"
     inkscape:pageopacity="0"
     inkscape:pageshadow="2"
     inkscape:window-width="797"
     inkscape:window-height="480"
     id="namedview89106"
     showgrid="false"
     inkscape:zoom="0.295"
     inkscape:cx="400"
     inkscape:cy="400"
     inkscape:window-x="0"
     inkscape:window-y="0"
     inkscape:window-maximized="0"
     inkscape:current-layer="g89112" /><g
     id="g89112"
     inkscape:groupmode="layer"
     inkscape:label="mic-in-hand-publicdomainvectors.org"
     transform="matrix(1.3333333,0,0,-1.3333333,0,800)"><g
       id="g89114"><g
         id="g89116"
         clip-path="url(#clipPath89120)"><path
           d="m 97.841,502.619 c 43.971,1.766 81.045,-32.45 82.809,-76.42 1.765,-43.97 -32.449,-81.044 -76.42,-82.81 -43.971,-1.764 -81.045,32.45 -82.809,76.421 -1.765,43.97 32.449,81.045 76.42,82.809"
           style="fill:#000000;fill-opacity:1;fill-rule:evenodd;stroke:none"
           id="path89122"
           inkscape:connector-curvature="0" /><path
           d="m 27.684,454.157 2.732,-68.082 c -0.596,1.137 -1.166,2.292 -1.708,3.462 l -2.449,61.033 c 0.446,1.209 0.921,2.406 1.425,3.587"
           style="fill:#b3b3b3;fill-opacity:1;fill-rule:evenodd;stroke:none"
           id="path89124"
           inkscape:connector-curvature="0" /><path
           d="m 26.259,450.57 2.449,-61.033 c -0.612,1.322 -1.188,2.665 -1.73,4.027 l -2.121,52.853 c 0.431,1.4 0.897,2.785 1.402,4.153"
           style="fill:#4d4d4d;fill-opacity:1;fill-rule:evenodd;stroke:none"
           id="path89126"
           inkscape:connector-curvature="0" /><path
           d="m 36.313,469.481 3.933,-97.989 c -0.562,0.661 -1.11,1.335 -1.65,2.014 l -3.765,93.835 c 0.483,0.721 0.976,1.435 1.482,2.14"
           style="fill:#b3b3b3;fill-opacity:1;fill-rule:evenodd;stroke:none"
           id="path89128"
           inkscape:connector-curvature="0" /><path
           d="m 34.831,467.341 3.765,-93.835 c -0.562,0.709 -1.117,1.426 -1.655,2.154 l -3.587,89.401 c 0.478,0.769 0.973,1.528 1.477,2.28"
           style="fill:#4d4d4d;fill-opacity:1;fill-rule:evenodd;stroke:none"
           id="path89130"
           inkscape:connector-curvature="0" /><path
           d="m 45.144,479.794 4.73,-117.875 c -0.548,0.46 -1.089,0.928 -1.624,1.403 l -4.613,114.944 c 0.496,0.515 0.997,1.026 1.507,1.528"
           style="fill:#b3b3b3;fill-opacity:1;fill-rule:evenodd;stroke:none"
           id="path89132"
           inkscape:connector-curvature="0" /><path
           d="M 43.637,478.266 48.25,363.322 c -0.55,0.486 -1.092,0.982 -1.629,1.483 l -4.488,111.851 c 0.494,0.543 0.995,1.081 1.504,1.61"
           style="fill:#4d4d4d;fill-opacity:1;fill-rule:evenodd;stroke:none"
           id="path89134"
           inkscape:connector-curvature="0" /><path
           d="m 54.084,487.388 5.31,-132.322 c -0.541,0.332 -1.077,0.671 -1.61,1.016 l -5.223,130.165 c 0.503,0.386 1.011,0.766 1.523,1.141"
           style="fill:#b3b3b3;fill-opacity:1;fill-rule:evenodd;stroke:none"
           id="path89136"
           inkscape:connector-curvature="0" /><path
           d="m 52.561,486.247 5.223,-130.165 c -0.541,0.35 -1.079,0.707 -1.611,1.07 L 51.041,485.05 c 0.502,0.406 1.008,0.804 1.52,1.197"
           style="fill:#4d4d4d;fill-opacity:1;fill-rule:evenodd;stroke:none"
           id="path89138"
           inkscape:connector-curvature="0" /><path
           d="m 63.1,493.088 5.737,-142.982 c -0.536,0.238 -1.068,0.48 -1.597,0.728 l -5.675,141.401 c 0.508,0.29 1.02,0.574 1.535,0.853"
           style="fill:#b3b3b3;fill-opacity:1;fill-rule:evenodd;stroke:none"
           id="path89140"
           inkscape:connector-curvature="0" /><path
           d="M 61.565,492.235 67.24,350.834 c -0.537,0.251 -1.071,0.508 -1.6,0.771 l -5.607,139.733 c 0.507,0.305 1.018,0.603 1.532,0.897"
           style="fill:#4d4d4d;fill-opacity:1;fill-rule:evenodd;stroke:none"
           id="path89142"
           inkscape:connector-curvature="0" /><path
           d="m 72.176,497.293 6.045,-150.65 c -0.532,0.158 -1.062,0.319 -1.588,0.489 l -6.001,149.546 c 0.511,0.211 1.027,0.414 1.544,0.615"
           style="fill:#b3b3b3;fill-opacity:1;fill-rule:evenodd;stroke:none"
           id="path89144"
           inkscape:connector-curvature="0" /><path
           d="m 70.632,496.678 6.001,-149.546 c -0.534,0.171 -1.063,0.35 -1.591,0.533 L 69.09,496.02 c 0.511,0.224 1.024,0.444 1.542,0.658"
           style="fill:#4d4d4d;fill-opacity:1;fill-rule:evenodd;stroke:none"
           id="path89146"
           inkscape:connector-curvature="0" /><path
           d="m 81.303,500.213 6.249,-155.749 c -0.528,0.089 -1.055,0.182 -1.579,0.282 L 79.75,499.804 c 0.516,0.142 1.033,0.277 1.553,0.409"
           style="fill:#b3b3b3;fill-opacity:1;fill-rule:evenodd;stroke:none"
           id="path89148"
           inkscape:connector-curvature="0" /><path
           d="m 79.75,499.804 6.223,-155.058 c -0.529,0.101 -1.056,0.208 -1.582,0.32 L 78.2,499.36 c 0.515,0.154 1.032,0.301 1.55,0.444"
           style="fill:#4d4d4d;fill-opacity:1;fill-rule:evenodd;stroke:none"
           id="path89150"
           inkscape:connector-curvature="0" /><path
           d="m 90.476,501.981 6.362,-158.543 c -0.525,0.026 -1.049,0.058 -1.573,0.095 l -6.349,158.225 c 0.519,0.079 1.039,0.153 1.56,0.223"
           style="fill:#b3b3b3;fill-opacity:1;fill-rule:evenodd;stroke:none"
           id="path89152"
           inkscape:connector-curvature="0" /><path
           d="m 88.917,501.758 6.348,-158.225 c -0.525,0.038 -1.05,0.078 -1.573,0.126 l -6.334,157.847 c 0.517,0.09 1.037,0.173 1.559,0.252"
           style="fill:#4d4d4d;fill-opacity:1;fill-rule:evenodd;stroke:none"
           id="path89154"
           inkscape:connector-curvature="0" /><path
           d="m 99.693,502.67 6.387,-159.183 c -0.52,-0.032 -1.041,-0.059 -1.565,-0.083 l -6.389,159.223 c 0.524,0.019 1.046,0.035 1.567,0.043"
           style="fill:#b3b3b3;fill-opacity:1;fill-rule:evenodd;stroke:none"
           id="path89156"
           inkscape:connector-curvature="0" /><path
           d="m 98.126,502.627 6.389,-159.223 c -0.095,-0.003 -0.189,-0.01 -0.285,-0.015 -0.428,-0.016 -0.855,-0.025 -1.281,-0.035 l -6.388,159.198 c 0.426,0.024 0.852,0.051 1.28,0.067 0.095,0.005 0.19,0.005 0.285,0.008"
           style="fill:#4d4d4d;fill-opacity:1;fill-rule:evenodd;stroke:none"
           id="path89158"
           inkscape:connector-curvature="0" /><path
           d="m 108.953,502.292 6.328,-157.687 c -0.518,-0.093 -1.038,-0.182 -1.559,-0.266 l -6.344,158.094 c 0.526,-0.041 1.052,-0.088 1.575,-0.141"
           style="fill:#b3b3b3;fill-opacity:1;fill-rule:evenodd;stroke:none"
           id="path89160"
           inkscape:connector-curvature="0" /><path
           d="m 107.378,502.433 6.344,-158.093 c -0.518,-0.084 -1.037,-0.164 -1.558,-0.237 l -6.359,158.441 c 0.526,-0.031 1.05,-0.07 1.573,-0.111"
           style="fill:#4d4d4d;fill-opacity:1;fill-rule:evenodd;stroke:none"
           id="path89162"
           inkscape:connector-curvature="0" /><path
           d="m 118.257,500.816 6.179,-153.993 c -0.514,-0.158 -1.031,-0.308 -1.55,-0.456 l -6.211,154.779 c 0.529,-0.105 1.056,-0.214 1.582,-0.33"
           style="fill:#b3b3b3;fill-opacity:1;fill-rule:evenodd;stroke:none"
           id="path89164"
           inkscape:connector-curvature="0" /><path
           d="m 116.675,501.146 6.211,-154.779 c -0.515,-0.146 -1.032,-0.287 -1.552,-0.424 l -6.24,155.502 c 0.529,-0.095 1.056,-0.194 1.581,-0.299"
           style="fill:#4d4d4d;fill-opacity:1;fill-rule:evenodd;stroke:none"
           id="path89166"
           inkscape:connector-curvature="0" /><path
           d="m 127.608,498.14 5.935,-147.901 c -0.51,-0.228 -1.025,-0.45 -1.542,-0.668 l -5.983,149.112 c 0.532,-0.175 1.063,-0.355 1.59,-0.543"
           style="fill:#b3b3b3;fill-opacity:1;fill-rule:evenodd;stroke:none"
           id="path89168"
           inkscape:connector-curvature="0" /><path
           d="m 126.018,498.683 5.983,-149.112 c -0.511,-0.216 -1.025,-0.426 -1.543,-0.631 l -6.028,150.248 c 0.531,-0.163 1.06,-0.331 1.588,-0.505"
           style="fill:#4d4d4d;fill-opacity:1;fill-rule:evenodd;stroke:none"
           id="path89170"
           inkscape:connector-curvature="0" /><path
           d="m 137.015,494.107 5.581,-139.094 c -0.506,-0.311 -1.017,-0.616 -1.532,-0.915 l -5.65,140.799 c 0.538,-0.257 1.07,-0.52 1.601,-0.79"
           style="fill:#b3b3b3;fill-opacity:1;fill-rule:evenodd;stroke:none"
           id="path89172"
           inkscape:connector-curvature="0" /><path
           d="m 135.415,494.897 5.649,-140.799 c -0.507,-0.295 -1.019,-0.585 -1.533,-0.87 l -5.715,142.413 c 0.536,-0.242 1.069,-0.491 1.599,-0.744"
           style="fill:#4d4d4d;fill-opacity:1;fill-rule:evenodd;stroke:none"
           id="path89174"
           inkscape:connector-curvature="0" /><path
           d="m 146.486,488.449 5.098,-127.037 c -0.501,-0.413 -1.008,-0.819 -1.52,-1.219 l -5.19,129.349 c 0.543,-0.357 1.079,-0.722 1.612,-1.093"
           style="fill:#b3b3b3;fill-opacity:1;fill-rule:evenodd;stroke:none"
           id="path89176"
           inkscape:connector-curvature="0" /><path
           d="m 144.874,489.542 5.191,-129.348 c -0.503,-0.394 -1.011,-0.781 -1.523,-1.162 l -5.278,131.545 c 0.541,-0.338 1.077,-0.683 1.61,-1.035"
           style="fill:#4d4d4d;fill-opacity:1;fill-rule:evenodd;stroke:none"
           id="path89178"
           inkscape:connector-curvature="0" /><path
           d="m 156.044,480.642 4.441,-110.682 c -0.492,-0.552 -0.995,-1.098 -1.503,-1.636 l -4.567,113.829 c 0.549,-0.496 1.094,-1 1.629,-1.511"
           style="fill:#b3b3b3;fill-opacity:1;fill-rule:evenodd;stroke:none"
           id="path89180"
           inkscape:connector-curvature="0" /><path
           d="m 154.415,482.153 4.568,-113.829 c -0.496,-0.525 -0.997,-1.043 -1.506,-1.555 l -4.688,116.812 c 0.548,-0.469 1.09,-0.945 1.626,-1.428"
           style="fill:#4d4d4d;fill-opacity:1;fill-rule:evenodd;stroke:none"
           id="path89182"
           inkscape:connector-curvature="0" /><path
           d="m 165.735,469.515 3.519,-87.687 c -0.48,-0.793 -0.968,-1.579 -1.474,-2.354 l -3.703,92.269 c 0.567,-0.732 1.117,-1.476 1.658,-2.228"
           style="fill:#b3b3b3;fill-opacity:1;fill-rule:evenodd;stroke:none"
           id="path89184"
           inkscape:connector-curvature="0" /><path
           d="m 164.078,471.743 3.702,-92.269 c -0.481,-0.735 -0.978,-1.46 -1.482,-2.178 l -3.872,96.5 c 0.561,-0.676 1.114,-1.358 1.652,-2.053"
           style="fill:#4d4d4d;fill-opacity:1;fill-rule:evenodd;stroke:none"
           id="path89186"
           inkscape:connector-curvature="0" /><path
           d="m 175.731,450.786 1.985,-49.488 c -0.422,-1.494 -0.883,-2.975 -1.39,-4.434 l -2.337,58.229 c 0.623,-1.413 1.201,-2.851 1.742,-4.307"
           style="fill:#b3b3b3;fill-opacity:1;fill-rule:evenodd;stroke:none"
           id="path89188"
           inkscape:connector-curvature="0" /><path
           d="m 173.99,455.093 2.336,-58.228 c -0.441,-1.271 -0.913,-2.528 -1.417,-3.768 l -2.634,65.639 c 0.601,-1.197 1.172,-2.412 1.715,-3.643"
           style="fill:#4d4d4d;fill-opacity:1;fill-rule:evenodd;stroke:none"
           id="path89190"
           inkscape:connector-curvature="0" /><path
           d="m 27.231,392.967 50.074,-46.21 c -1.226,0.383 -2.445,0.797 -3.656,1.241 l -44.888,41.424 c -0.54,1.171 -1.05,2.353 -1.53,3.545"
           style="fill:#b3b3b3;fill-opacity:1;fill-rule:evenodd;stroke:none"
           id="path89192"
           inkscape:connector-curvature="0" /><path
           d="M 28.761,389.423 73.65,347.998 c -1.369,0.501 -2.726,1.044 -4.071,1.624 l -38.873,35.873 c -0.685,1.295 -1.335,2.605 -1.945,3.928"
           style="fill:#4d4d4d;fill-opacity:1;fill-rule:evenodd;stroke:none"
           id="path89194"
           inkscape:connector-curvature="0" /><path
           d="m 22.498,409.905 72.069,-66.509 c -0.865,0.071 -1.729,0.159 -2.591,0.258 l -69.013,63.688 c -0.168,0.852 -0.325,1.706 -0.465,2.563"
           style="fill:#b3b3b3;fill-opacity:1;fill-rule:evenodd;stroke:none"
           id="path89196"
           inkscape:connector-curvature="0" /><path
           d="m 22.963,407.342 69.013,-63.688 c -0.898,0.103 -1.797,0.219 -2.693,0.353 L 23.53,404.686 c -0.205,0.882 -0.392,1.769 -0.567,2.656"
           style="fill:#4d4d4d;fill-opacity:1;fill-rule:evenodd;stroke:none"
           id="path89198"
           inkscape:connector-curvature="0" /><path
           d="m 21.45,423.441 86.695,-80.005 c -0.714,-0.063 -1.428,-0.114 -2.141,-0.157 l -84.54,78.016 c -0.012,0.715 -0.019,1.431 -0.014,2.146"
           style="fill:#b3b3b3;fill-opacity:1;fill-rule:evenodd;stroke:none"
           id="path89200"
           inkscape:connector-curvature="0" /><path
           d="m 21.464,421.295 84.54,-78.016 c -0.733,-0.046 -1.467,-0.077 -2.201,-0.102 l -82.264,75.917 c -0.034,0.733 -0.061,1.467 -0.075,2.201"
           style="fill:#4d4d4d;fill-opacity:1;fill-rule:evenodd;stroke:none"
           id="path89202"
           inkscape:connector-curvature="0" /><path
           d="m 22.402,435.133 97.32,-89.811 c -0.618,-0.148 -1.236,-0.288 -1.857,-0.421 l -95.734,88.348 c 0.083,0.628 0.173,1.257 0.271,1.884"
           style="fill:#b3b3b3;fill-opacity:1;fill-rule:evenodd;stroke:none"
           id="path89204"
           inkscape:connector-curvature="0" /><path
           d="m 22.131,433.249 95.735,-88.348 c -0.631,-0.135 -1.263,-0.262 -1.897,-0.381 l -94.066,86.807 c 0.068,0.642 0.144,1.282 0.228,1.922"
           style="fill:#4d4d4d;fill-opacity:1;fill-rule:evenodd;stroke:none"
           id="path89206"
           inkscape:connector-curvature="0" /><path
           d="m 24.746,445.538 105.16,-97.046 c -0.546,-0.211 -1.095,-0.417 -1.644,-0.615 L 24.265,443.85 c 0.154,0.564 0.315,1.127 0.481,1.688"
           style="fill:#b3b3b3;fill-opacity:1;fill-rule:evenodd;stroke:none"
           id="path89208"
           inkscape:connector-curvature="0" /><path
           d="m 24.265,443.85 103.997,-95.973 c -0.558,-0.202 -1.116,-0.397 -1.677,-0.586 L 23.814,442.132 c 0.144,0.574 0.294,1.147 0.451,1.718"
           style="fill:#4d4d4d;fill-opacity:1;fill-rule:evenodd;stroke:none"
           id="path89210"
           inkscape:connector-curvature="0" /><path
           d="m 28.189,454.928 110.802,-102.25 c -0.488,-0.264 -0.977,-0.525 -1.47,-0.778 L 27.534,453.402 c 0.212,0.511 0.432,1.019 0.655,1.526"
           style="fill:#b3b3b3;fill-opacity:1;fill-rule:evenodd;stroke:none"
           id="path89212"
           inkscape:connector-curvature="0" /><path
           d="M 27.534,453.403 137.521,351.9 c -0.497,-0.255 -0.998,-0.503 -1.5,-0.747 L 26.908,451.846 c 0.204,0.52 0.411,1.04 0.626,1.557"
           style="fill:#4d4d4d;fill-opacity:1;fill-rule:evenodd;stroke:none"
           id="path89214"
           inkscape:connector-curvature="0" /><path
           d="M 32.579,463.447 147.131,357.735 c -0.438,-0.31 -0.876,-0.617 -1.318,-0.917 L 31.77,462.061 c 0.264,0.464 0.536,0.926 0.809,1.386"
           style="fill:#b3b3b3;fill-opacity:1;fill-rule:evenodd;stroke:none"
           id="path89216"
           inkscape:connector-curvature="0" /><path
           d="M 31.771,462.061 145.813,356.818 c -0.446,-0.302 -0.893,-0.6 -1.343,-0.892 L 30.989,460.65 c 0.255,0.472 0.516,0.943 0.782,1.411"
           style="fill:#4d4d4d;fill-opacity:1;fill-rule:evenodd;stroke:none"
           id="path89218"
           inkscape:connector-curvature="0" /><path
           d="M 37.816,471.184 154.422,363.575 c -0.391,-0.352 -0.784,-0.7 -1.18,-1.043 L 36.871,469.923 c 0.31,0.423 0.625,0.843 0.945,1.261"
           style="fill:#b3b3b3;fill-opacity:1;fill-rule:evenodd;stroke:none"
           id="path89220"
           inkscape:connector-curvature="0" /><path
           d="M 36.871,469.924 153.242,362.532 c -0.399,-0.346 -0.798,-0.688 -1.202,-1.024 L 35.946,468.644 c 0.303,0.429 0.613,0.855 0.925,1.28"
           style="fill:#4d4d4d;fill-opacity:1;fill-rule:evenodd;stroke:none"
           id="path89222"
           inkscape:connector-curvature="0" /><path
           d="M 43.845,478.189 160.922,370.146 c -0.345,-0.391 -0.695,-0.779 -1.049,-1.166 L 42.768,477.05 c 0.357,0.384 0.715,0.763 1.077,1.139"
           style="fill:#b3b3b3;fill-opacity:1;fill-rule:evenodd;stroke:none"
           id="path89224"
           inkscape:connector-curvature="0" /><path
           d="M 42.769,477.051 159.874,368.98 c -0.065,-0.069 -0.127,-0.141 -0.191,-0.211 -0.291,-0.315 -0.588,-0.623 -0.882,-0.932 L 41.715,475.891 c 0.285,0.318 0.566,0.638 0.857,0.953 0.064,0.07 0.131,0.137 0.197,0.207"
           style="fill:#4d4d4d;fill-opacity:1;fill-rule:evenodd;stroke:none"
           id="path89226"
           inkscape:connector-curvature="0" /><path
           d="M 50.66,484.47 166.636,377.442 c -0.299,-0.432 -0.603,-0.862 -0.913,-1.29 L 49.447,483.456 c 0.402,0.343 0.806,0.68 1.213,1.014"
           style="fill:#b3b3b3;fill-opacity:1;fill-rule:evenodd;stroke:none"
           id="path89228"
           inkscape:connector-curvature="0" /><path
           d="M 49.448,483.456 165.723,376.153 c -0.308,-0.425 -0.618,-0.85 -0.935,-1.27 L 48.257,482.422 c 0.394,0.35 0.792,0.693 1.191,1.034"
           style="fill:#4d4d4d;fill-opacity:1;fill-rule:evenodd;stroke:none"
           id="path89230"
           inkscape:connector-curvature="0" /><path
           d="m 58.284,490.004 113.258,-104.52 c -0.252,-0.475 -0.511,-0.947 -0.774,-1.419 L 56.931,489.119 c 0.449,0.299 0.899,0.596 1.353,0.885"
           style="fill:#b3b3b3;fill-opacity:1;fill-rule:evenodd;stroke:none"
           id="path89232"
           inkscape:connector-curvature="0" /><path
           d="M 56.931,489.119 170.769,384.065 c -0.262,-0.468 -0.528,-0.933 -0.798,-1.396 L 55.603,488.213 c 0.44,0.307 0.883,0.609 1.328,0.906"
           style="fill:#4d4d4d;fill-opacity:1;fill-rule:evenodd;stroke:none"
           id="path89234"
           inkscape:connector-curvature="0" /><path
           d="M 66.788,494.725 175.567,394.34 c -0.2,-0.523 -0.407,-1.044 -0.618,-1.564 L 65.279,493.984 c 0.501,0.252 1.003,0.5 1.509,0.741"
           style="fill:#b3b3b3;fill-opacity:1;fill-rule:evenodd;stroke:none"
           id="path89236"
           inkscape:connector-curvature="0" /><path
           d="m 65.279,493.984 109.67,-101.207 c -0.209,-0.514 -0.425,-1.027 -0.646,-1.537 L 63.799,493.218 c 0.491,0.261 0.985,0.516 1.48,0.766"
           style="fill:#4d4d4d;fill-opacity:1;fill-rule:evenodd;stroke:none"
           id="path89238"
           inkscape:connector-curvature="0" /><path
           d="m 76.291,498.525 102.302,-94.408 c -0.139,-0.578 -0.285,-1.154 -0.437,-1.73 L 74.601,497.952 c 0.562,0.196 1.125,0.388 1.69,0.573"
           style="fill:#b3b3b3;fill-opacity:1;fill-rule:evenodd;stroke:none"
           id="path89240"
           inkscape:connector-curvature="0" /><path
           d="m 74.602,497.952 103.554,-95.565 c -0.15,-0.568 -0.306,-1.135 -0.469,-1.7 L 72.944,497.348 c 0.551,0.207 1.103,0.408 1.658,0.604"
           style="fill:#4d4d4d;fill-opacity:1;fill-rule:evenodd;stroke:none"
           id="path89242"
           inkscape:connector-curvature="0" /><path
           d="m 86.989,501.221 93.434,-86.224 c -0.063,-0.646 -0.134,-1.292 -0.213,-1.936 l -95.134,87.793 c 0.636,0.13 1.274,0.252 1.913,0.367"
           style="fill:#b3b3b3;fill-opacity:1;fill-rule:evenodd;stroke:none"
           id="path89244"
           inkscape:connector-curvature="0" /><path
           d="m 85.077,500.854 95.133,-87.793 c -0.077,-0.634 -0.163,-1.266 -0.255,-1.897 l -96.749,89.284 c 0.622,0.142 1.246,0.278 1.871,0.406"
           style="fill:#4d4d4d;fill-opacity:1;fill-rule:evenodd;stroke:none"
           id="path89246"
           inkscape:connector-curvature="0" /><path
           d="m 99.268,502.458 81.405,-75.122 c 0.042,-0.741 0.073,-1.48 0.094,-2.22 l -83.719,77.259 c 0.74,0.038 1.48,0.067 2.22,0.083"
           style="fill:#b3b3b3;fill-opacity:1;fill-rule:evenodd;stroke:none"
           id="path89248"
           inkscape:connector-curvature="0" /><path
           d="m 97.049,502.375 83.718,-77.259 c 0.021,-0.722 0.033,-1.443 0.034,-2.164 l -85.912,79.283 c 0.719,0.057 1.438,0.103 2.16,0.14"
           style="fill:#4d4d4d;fill-opacity:1;fill-rule:evenodd;stroke:none"
           id="path89250"
           inkscape:connector-curvature="0" /><path
           d="m 113.989,501.443 64.492,-59.516 c 0.222,-0.899 0.432,-1.801 0.622,-2.707 l -67.862,62.627 c 0.918,-0.117 1.833,-0.255 2.748,-0.404"
           style="fill:#b3b3b3;fill-opacity:1;fill-rule:evenodd;stroke:none"
           id="path89252"
           inkscape:connector-curvature="0" /><path
           d="m 111.241,501.847 67.862,-62.626 c 0.181,-0.861 0.341,-1.724 0.493,-2.588 l -70.974,65.498 c 0.874,-0.082 1.747,-0.174 2.619,-0.284"
           style="fill:#4d4d4d;fill-opacity:1;fill-rule:evenodd;stroke:none"
           id="path89254"
           inkscape:connector-curvature="0" /><path
           d="m 134.301,495.269 36.397,-33.59 c 0.758,-1.355 1.479,-2.728 2.152,-4.117 l -42.827,39.521 c 1.44,-0.56 2.866,-1.168 4.278,-1.814"
           style="fill:#b3b3b3;fill-opacity:1;fill-rule:evenodd;stroke:none"
           id="path89256"
           inkscape:connector-curvature="0" /><path
           d="m 130.024,497.083 42.826,-39.521 c 0.586,-1.211 1.14,-2.434 1.662,-3.668 l -48.277,44.552 c 1.272,-0.421 2.535,-0.877 3.789,-1.363"
           style="fill:#4d4d4d;fill-opacity:1;fill-rule:evenodd;stroke:none"
           id="path89258"
           inkscape:connector-curvature="0" /><path
           d="m 22.182,398.626 149.291,67.401 c 1.113,0.503 2.435,0.003 2.938,-1.11 l 6.664,-14.763 c 0.503,-1.113 0.004,-2.435 -1.109,-2.937 L 30.674,379.815 c -1.113,-0.502 -2.435,-0.002 -2.937,1.111 l -6.666,14.763 c -0.502,1.113 -0.002,2.434 1.111,2.937"
           style="fill:#e6e6e6;fill-opacity:1;fill-rule:evenodd;stroke:none"
           id="path89260"
           inkscape:connector-curvature="0" /><path
           d="m 81.301,345.836 c 30.223,13.644 60.445,27.289 90.668,40.934 -6.901,-11.691 -8.418,-23.459 -3.01,-35.325 -8.175,-6.892 -16.35,-13.783 -24.525,-20.674 -11.548,-2.014 -23.097,-4.027 -34.646,-6.041 -9.211,12.181 -18.733,18.725 -28.487,21.106"
           style="fill:#666666;fill-opacity:1;fill-rule:evenodd;stroke:none"
           id="path89262"
           inkscape:connector-curvature="0" /><path
           d="m 165.794,363.394 c 0.31,-3.972 1.345,-7.956 3.165,-11.949 -8.175,-6.892 -16.35,-13.783 -24.525,-20.674 -11.548,-2.014 -23.097,-4.027 -34.646,-6.041 -2.79,3.691 -5.61,6.864 -8.457,9.561 z"
           style="fill:#4d4d4d;fill-opacity:1;fill-rule:evenodd;stroke:none"
           id="path89264"
           inkscape:connector-curvature="0" /><path
           d="m 235.774,90.513 25.539,11.531 c 5.6,2.527 8.175,9.064 5.805,14.731 L 168.959,351.445 109.788,324.73 220.883,95.903 c 2.684,-5.525 9.291,-7.918 14.891,-5.39"
           style="fill:#000000;fill-opacity:1;fill-rule:evenodd;stroke:none"
           id="path89266"
           inkscape:connector-curvature="0" /><path
           d="m 413.83,292.826 c 11.522,-35.655 23.042,-71.311 34.565,-106.968 -25.707,-6.047 -52.298,-9.129 -77.117,-18.146 -12.752,-4.633 -25.947,-19.514 -47.355,-26.587 -38.242,-12.634 -66.175,-26.396 -102.37,-32.781 -8.967,-1.581 -14.07,-3.091 -30.603,0.508 -16.534,3.6 -31.726,11.549 -20.49,28.012 -3.872,-0.113 -7.743,-0.223 -11.614,-0.341 -29.455,-0.885 -27.783,38.12 -4.65,39.522 -3.868,1.501 -11.609,2.158 -15.547,3.458 -20.133,6.653 -29.255,26.837 -7.846,41.37 4.364,2.963 10.358,2.02 15.536,3.027 -23.056,3.877 -32.566,37.949 -5.714,37.313 31.011,-0.734 58.729,-5.027 86.077,3.022 -9.651,1.779 -18.121,6.252 -26.16,11.703 -16.915,13.969 -23.249,30.908 -21.019,50.251 6.147,10.693 12.687,-4.788 41.954,-22.148 20.859,-12.374 49.054,1.245 72.623,-4.476 20.535,-4.984 36.227,-25.881 57.326,-27.068 21.843,-1.23 41.603,13.552 62.404,20.329"
           style="fill:#ffcc99;fill-opacity:1;fill-rule:evenodd;stroke:none"
           id="path89268"
           inkscape:connector-curvature="0" /><path
           d="m 187.437,328.65 c 4.925,-2.68 12.196,-10.153 25.05,-18.895 -11.609,-5.241 -14.423,-2.463 -18.7,1.136 -4.591,3.863 -8.025,11.208 -6.35,17.759"
           style="fill:#ffe1c2;fill-opacity:1;fill-rule:evenodd;stroke:none"
           id="path89270"
           inkscape:connector-curvature="0" /><path
           d="m 445.896,193.594 2.499,-7.736 c -25.707,-6.047 -52.298,-9.129 -77.117,-18.146 -10.715,-3.893 -21.742,-15.019 -37.691,-22.669 14.532,15.762 16.198,31.454 32.78,38.705 24.495,10.707 52.524,8.39 79.529,9.846 m -32.066,99.232 c -20.801,-6.777 -40.561,-21.559 -62.404,-20.329 -21.099,1.187 -36.791,22.084 -57.326,27.068 -6.217,1.509 -12.754,1.671 -19.396,1.322 41.754,-12.258 34.965,-45.902 60.774,-48.718 28.936,-3.157 53.826,22.182 80.739,33.273 -0.796,2.461 -1.591,4.923 -2.387,7.384 M 226.702,264.235 c -9.651,1.779 -18.121,6.252 -26.16,11.703 -16.915,13.969 -23.249,30.908 -21.019,50.251 0.873,1.518 1.753,2.507 2.706,3.04 -3.013,-6.5 7.779,-37.044 22.278,-45.969 22.108,-13.606 43.703,-9.197 73.516,-2.111 -15.092,-10.098 -32.305,-15.505 -51.321,-16.914 M 123.581,214.316 c 1.794,2.285 4.178,4.491 7.222,6.557 4.364,2.964 10.358,2.02 15.536,3.027 -8.636,1.453 -15.371,7.141 -19.007,13.656 7.969,-8.978 39.041,-14.205 61.53,-14.928 -30.16,-1.383 -59.961,-3.128 -65.281,-8.312 m 13.948,-52.359 c 1.949,7.339 7.691,13.545 16.667,14.088 -3.868,1.501 -11.609,2.158 -15.547,3.458 -7.996,2.643 -14.252,7.42 -17.551,13.131 17.679,-11.298 38.655,-14.572 61.941,-12.228 -15.999,-3.267 -31.639,-7.468 -45.51,-18.449 m 29.741,-31.386 c 0.611,1.946 1.651,4.038 3.19,6.293 -3.872,-0.113 -7.743,-0.223 -11.614,-0.341 -10.133,-0.304 -16.582,4.111 -19.742,10.096 9.797,-8.582 52.138,-5.952 77.404,-2.338 -29.149,-12.968 -45.698,-21.216 -49.238,-13.71"
           style="fill:#f0bc88;fill-opacity:1;fill-rule:evenodd;stroke:none"
           id="path89272"
           inkscape:connector-curvature="0" /><path
           d="m 337.148,246.62 c -3.865,2.507 -78.171,1.545 -97.938,0.26 -28.782,-1.873 -55.066,-7.003 -36.569,-22.885 13.893,-11.93 -5.67,-20.641 7.252,-30.55 10.786,-8.27 2.336,-20.746 18.045,-32.338 12.865,-9.494 -15.984,-17.729 12.413,-33.91 14.895,-8.486 46.313,16.938 66.811,22.828 21.464,6.168 44.44,17.252 42.561,35.498 -1.869,18.156 -9.891,16.989 -9.562,28.737 0.328,11.75 7.899,25.289 -3.013,32.36"
           style="fill:#ffd3a6;fill-opacity:1;fill-rule:evenodd;stroke:none"
           id="path89274"
           inkscape:connector-curvature="0" /><path
           d="m 418.27,161.094 -44.047,130.141 51.368,14.367 43.152,-132.506 z"
           style="fill:#e6e6e6;fill-opacity:1;fill-rule:evenodd;stroke:none"
           id="path89276"
           inkscape:connector-curvature="0" /><path
           d="M 410.09,318.214 465.3,156.831 582.25,191 522.995,361.344 Z"
           style="fill:#000000;fill-opacity:1;fill-rule:evenodd;stroke:none"
           id="path89278"
           inkscape:connector-curvature="0" /></g></g></g></svg>